<svg width="88" height="88" viewBox="0 0 88 88" fill="none" xmlns="http://www.w3.org/2000/svg">
<g filter="url(#filter0_d_209_3)">
<circle cx="44" cy="44" r="40" fill="#2D55FF"/>
</g>
<g clip-path="url(#clip0_209_3)">
<path d="M52.8092 43.9536C55.1898 43.5305 57.3459 42.4062 59.0689 40.6839C61.2985 38.4542 62.5266 35.5127 62.5266 32.364C62.5266 29.9959 60.5935 28.0899 58.2174 28.0899H53.6508C53.6508 28.0081 53.6508 27.9433 53.6508 27.8926V24.7473C53.6508 24.2955 53.2444 24 52.7928 24H35.2059C34.7542 24 34.428 24.2955 34.428 24.7473V28.0193C34.428 28.0294 34.3891 28.0082 34.3894 28.09H29.7807C27.4056 28.09 25.4734 29.9953 25.4734 32.3633C25.4734 35.5059 26.702 38.4544 28.933 40.6855C30.6367 42.3882 32.8507 43.5339 35.2104 43.954C35.9176 45.5675 37.0474 46.9463 38.5015 47.9654C39.316 48.5362 40.2356 48.9687 41.1354 49.2604V54.1841H40.7553C38.9357 54.1841 37.4544 55.6236 37.4544 57.4433V58.2339C35.6548 58.2491 34.1825 59.723 34.1825 61.5333V63.1412C34.1825 63.593 34.5495 64.0001 35.0013 64.0001H52.9972C53.4489 64.0001 53.8144 63.593 53.8144 63.1412V61.5333C53.8144 59.723 52.342 58.2491 50.5425 58.2339V57.4433C50.5425 55.6236 49.0628 54.1841 47.2432 54.1841H46.8615V49.2642C49.479 48.4543 51.6389 46.5516 52.8092 43.9536ZM53.6508 32.998H57.5992C57.3778 35.3702 55.8594 37.5586 53.6508 38.5887V32.998ZM53.6221 40.3612C56.9725 39.1506 59.2628 35.9584 59.2628 32.3652C59.2628 31.8014 58.7939 31.3619 58.2174 31.3619H53.6508V29.7259H58.2174C59.6915 29.7259 60.8907 30.8981 60.8907 32.364C60.8907 35.0757 59.8328 37.6166 57.9123 39.5372C56.6432 40.8055 55.1018 41.6923 53.4 42.1521C53.5307 41.5638 53.6049 40.9637 53.6221 40.3612ZM30.0897 39.5198C28.1678 37.5978 27.1093 35.0697 27.1093 32.364C27.1093 30.8981 28.3077 29.7259 29.7807 29.7259H34.4279V31.362H29.7814C29.2082 31.362 28.7593 31.7906 28.7593 32.364C28.7593 34.2624 29.3698 36.0464 30.5247 37.5426C31.517 38.828 32.8789 39.8096 34.4067 40.3602C34.4071 40.3752 34.4235 41.3492 34.6194 42.1464C32.9195 41.6834 31.3442 40.7736 30.0897 39.5198ZM34.4279 32.998V38.5869C32.2193 37.5602 30.645 35.3702 30.423 32.998H34.4279ZM36.0639 25.636H52.0148V27.272H36.0639V25.636ZM50.5152 59.91C51.4328 59.91 52.1784 60.6156 52.1784 61.5332V62.364H35.8185V61.5332C35.8185 60.6155 36.5658 59.91 37.4834 59.91H50.5152ZM47.2432 55.8201C48.1607 55.8201 48.9064 56.5257 48.9064 57.4433V58.2741H39.0905V57.4433C39.0905 56.5256 39.8378 55.8201 40.7554 55.8201H47.2432ZM42.7714 54.1841V49.6164C43.1804 49.6686 43.5907 49.6965 44.0068 49.6965C44.4185 49.6965 44.8164 49.669 45.2254 49.6182V54.184L42.7714 54.1841ZM44.0138 48.0605C40.733 48.0605 37.7348 46.002 36.5624 42.9379C36.5564 42.9223 36.5624 42.907 36.5555 42.8919C36.3507 42.3493 36.0638 40.9837 36.0638 40.0851V28.908H52.0147V40.0851C52.0147 40.9509 51.8307 41.8842 51.4776 42.9378C50.2364 46.0505 47.3057 48.0605 44.0138 48.0605Z" fill="#F2F2F2"/>
<path d="M48.3074 36.4574C48.128 36.3072 47.9047 36.1202 47.8404 36.0092C47.7681 35.8842 47.7159 35.5979 47.6699 35.3453C47.5564 34.7226 47.4152 33.9477 46.7153 33.5429C46.0321 33.1476 45.301 33.4051 44.7134 33.6122C44.4622 33.7008 44.1774 33.8012 44.0145 33.8012C43.8516 33.8012 43.5669 33.7008 43.3156 33.6122C42.7283 33.4053 41.9972 33.1474 41.3138 33.5429C40.6137 33.9479 40.4726 34.7227 40.3591 35.3455C40.3131 35.5981 40.2608 35.8844 40.1886 36.0093C40.1244 36.1204 39.9011 36.3073 39.7216 36.4576C39.2549 36.8484 38.6156 37.3836 38.6156 38.2184C38.6156 39.0533 39.2548 39.5886 39.7216 39.9793C39.901 40.1295 40.1244 40.3165 40.1886 40.4275C40.2609 40.5525 40.3131 40.8387 40.3591 41.0914C40.4726 41.714 40.6138 42.489 41.3138 42.8939C41.9969 43.2891 42.7281 43.0315 43.3156 42.8244C43.5668 42.7358 43.8516 42.6355 44.0145 42.6355C44.1774 42.6355 44.4622 42.7358 44.7134 42.8244C45.0772 42.9526 45.4959 43.1002 45.9244 43.1002C46.1879 43.1002 46.455 43.0444 46.7152 42.8938C47.4153 42.4888 47.5565 41.714 47.67 41.0912C47.716 40.8387 47.7681 40.5523 47.8404 40.4274C47.9047 40.3163 48.1279 40.1294 48.3074 39.9792C48.7741 39.5883 49.4134 39.0531 49.4134 38.2183C49.4134 37.3834 48.7743 36.8483 48.3074 36.4574ZM47.257 38.7249C46.9503 38.9818 46.633 39.2472 46.4242 39.6082C46.2096 39.9793 46.1303 40.4143 46.0604 40.7979C46.0228 41.0042 45.9623 41.3365 45.8936 41.4637C45.7518 41.4558 45.4469 41.3484 45.2572 41.2815C44.8822 41.1493 44.4573 40.9995 44.0145 40.9995C43.5717 40.9995 43.1468 41.1493 42.7718 41.2815C42.5821 41.3483 42.2773 41.4557 42.1354 41.4637C42.0668 41.3364 42.0062 41.0042 41.9686 40.7979C41.8987 40.4142 41.8194 39.9793 41.6047 39.6082C41.396 39.2474 41.0788 38.9818 40.772 38.7249C40.5981 38.5793 40.3125 38.3401 40.2561 38.2183C40.3124 38.0966 40.5981 37.8573 40.772 37.7118C41.0787 37.4549 41.396 37.1894 41.6048 36.8285C41.8194 36.4574 41.8987 36.0224 41.9686 35.6388C42.0062 35.4326 42.0667 35.1003 42.1354 34.9731C42.2772 34.981 42.5821 35.0884 42.7718 35.1553C43.1468 35.2875 43.5718 35.4372 44.0145 35.4372C44.4572 35.4372 44.8822 35.2875 45.2572 35.1553C45.4469 35.0885 45.7517 34.981 45.8936 34.9731C45.9622 35.1004 46.0228 35.4326 46.0604 35.6388C46.1303 36.0226 46.2096 36.4575 46.4243 36.8286C46.633 37.1894 46.9502 37.455 47.257 37.7118C47.4309 37.8574 47.7165 38.0966 47.7729 38.2183C47.7166 38.3401 47.4309 38.5793 47.257 38.7249Z" fill="#F2F2F2"/>
</g>
<defs>
<filter id="filter0_d_209_3" x="0" y="0" width="88" height="88" filterUnits="userSpaceOnUse" color-interpolation-filters="sRGB">
<feFlood flood-opacity="0" result="BackgroundImageFix"/>
<feColorMatrix in="SourceAlpha" type="matrix" values="0 0 0 0 0 0 0 0 0 0 0 0 0 0 0 0 0 0 127 0" result="hardAlpha"/>
<feOffset/>
<feGaussianBlur stdDeviation="2"/>
<feComposite in2="hardAlpha" operator="out"/>
<feColorMatrix type="matrix" values="0 0 0 0 0 0 0 0 0 0 0 0 0 0 0 0 0 0 0.05 0"/>
<feBlend mode="normal" in2="BackgroundImageFix" result="effect1_dropShadow_209_3"/>
<feBlend mode="normal" in="SourceGraphic" in2="effect1_dropShadow_209_3" result="shape"/>
</filter>
<clipPath id="clip0_209_3">
<rect width="40" height="40" fill="white" transform="translate(24 24)"/>
</clipPath>
</defs>
</svg>
