<svg width="116" height="116" viewBox="0 0 116 116" fill="none" xmlns="http://www.w3.org/2000/svg">
<g filter="url(#filter0_d_206_2)">
<circle cx="58" cy="58" r="54" fill="#DBE2FF"/>
</g>
<path d="M34.026 84.0735C34.026 85.4242 36.537 86.7196 41.0067 87.6748C45.4763 88.6299 51.5385 89.1665 57.8595 89.1665C64.1805 89.1665 70.2427 88.6299 74.7123 87.6748C79.182 86.7196 81.693 85.4242 81.693 84.0735C81.693 82.7227 79.182 81.4273 74.7123 80.4722C70.2427 79.5171 64.1805 78.9805 57.8595 78.9805C51.5385 78.9805 45.4763 79.5171 41.0067 80.4722C36.537 81.4273 34.026 82.7227 34.026 84.0735Z" fill="#B8CBCD"/>
<path d="M68.5255 73.667H46.5255L44.0255 84.167C44.0255 85.7375 50.4145 87.0075 57.5255 87.0075C64.6365 87.0075 71.0255 85.7375 71.0255 84.167L68.5255 73.667Z" fill="#758FFF"/>
<path d="M57.5255 88.0075C56.933 88.0075 43.0255 87.964 43.0255 84.167C43.0255 84.089 43.035 84.011 43.053 83.9355L45.553 73.4355C45.6051 73.2167 45.7294 73.0218 45.9058 72.8824C46.0823 72.743 46.3006 72.6671 46.5255 72.667H68.5255C68.7504 72.6671 68.9687 72.743 69.1452 72.8824C69.3216 73.0218 69.4459 73.2167 69.498 73.4355L71.998 83.9355C72.016 84.0115 72.0255 84.089 72.0255 84.167C72.0255 87.9635 58.118 88.0075 57.5255 88.0075ZM45.072 84.0895C45.892 84.8255 50.427 86.0075 57.5255 86.0075C64.624 86.0075 69.1595 84.8255 69.979 84.0895L67.7355 74.667H47.3155L45.072 84.0895Z" fill="#222B3D"/>
<path d="M57.5255 85.5835C56.933 85.5835 43.2755 85.5675 43.2755 81.771C43.2755 81.219 43.473 80.7435 44.0255 80.7435C44.2677 80.7436 44.5017 80.8315 44.684 80.9911C44.8663 81.1506 44.9844 81.3709 45.0165 81.611C45.663 82.341 50.2465 83.584 57.5255 83.584C64.8045 83.584 69.388 82.3415 70.0345 81.611C70.0666 81.3709 70.1848 81.1506 70.367 80.9911C70.5493 80.8315 70.7833 80.7436 71.0255 80.7435C71.5775 80.7435 71.567 81.3025 71.567 81.8545C71.567 85.651 58.118 85.5835 57.5255 85.5835Z" fill="#222B3D"/>
<path d="M74.059 49.7985C73.464 48.198 74.059 46.8955 74.059 46.8955C74.059 46.8955 67.9745 41.5925 67.0625 40.6805C66.151 39.769 66.1695 39.006 65.4995 38.522C64.8295 38.038 61.5545 37.033 61.4055 36.8845C61.2565 36.7355 62.351 35.612 62.939 35.0235C62.492 34.6885 59.805 34.6885 59.2465 34.6885C58.6885 34.6885 58.612 31.36 58.612 29.667C57.2165 29.667 55.543 34.298 55.543 34.298C51.133 34.298 43.876 40.327 43.876 50.822C43.876 55.009 46.5555 62.322 47.56 65.8945C47.799 66.7425 48.0595 67.958 48.112 68.667C54.4375 68.6855 60.612 68.667 67.112 68.667C67.1735 67.8335 67.0245 66.706 67.0245 65.4665C67.0245 60.2935 57.162 51.473 57.162 50.803C57.497 51.138 58.837 51.436 59.395 51.436C61.665 51.436 62.633 50.394 64.4565 50.394C66.28 50.394 66.8385 53.297 69.6295 53.297C72.421 53.297 72.719 51.9945 72.942 51.808C74.283 50.915 74.245 50.2075 74.059 49.7985Z" fill="#758FFF"/>
<path d="M54.4059 69.675C52.3124 69.675 50.2194 69.673 48.1099 69.667C47.858 69.6662 47.6157 69.5703 47.4314 69.3985C47.2471 69.2267 47.1345 68.9917 47.1159 68.7405C47.0734 68.17 46.8514 67.063 46.5989 66.1655C46.3734 65.3635 46.0654 64.38 45.7084 63.241C44.5134 59.4275 42.8774 54.205 42.8774 50.822C42.8774 40.6035 49.7219 33.917 54.8369 33.3385C55.6114 31.36 56.9684 28.667 58.6134 28.667C58.8787 28.667 59.133 28.7723 59.3205 28.9599C59.5081 29.1474 59.6134 29.4018 59.6134 29.667C59.6134 31.8825 59.7314 33.119 59.8369 33.692C62.8754 33.7255 63.2719 34.023 63.5399 34.2235C63.6545 34.3095 63.7493 34.4191 63.8179 34.5448C63.8864 34.6706 63.9272 34.8097 63.9373 34.9526C63.9475 35.0955 63.9268 35.2389 63.8767 35.3731C63.8266 35.5073 63.7482 35.6292 63.6469 35.7305C63.3719 36.0055 63.1529 36.2315 62.9784 36.4165C64.4889 36.951 65.5949 37.3565 66.0854 37.711C66.6069 38.0875 66.8524 38.5525 67.0699 38.963C67.2479 39.3005 67.4164 39.6195 67.7699 39.973C68.4719 40.675 72.6209 44.315 74.7169 46.1415C75.0504 46.4325 75.1534 46.9085 74.9694 47.311C74.9574 47.3405 74.5689 48.2695 74.9874 49.4235C75.2664 50.0695 75.4219 51.286 73.6459 52.5385C73.3219 53.042 72.4729 54.2965 69.6309 54.2965C67.6639 54.2965 66.5519 53.149 65.7399 52.3115C65.1879 51.7425 64.8314 51.394 64.4584 51.394C63.7649 51.394 63.1999 51.59 62.5459 51.817C61.8069 52.0735 60.9814 52.36 59.8569 52.423C63.8564 56.769 68.0264 61.675 68.0264 65.466C68.0264 65.9885 68.0544 66.4925 68.0814 66.98C68.1164 67.6135 68.1499 68.212 68.1109 68.74C68.0926 68.9918 67.9796 69.2274 67.7946 69.3993C67.6097 69.5712 67.3664 69.6667 67.1139 69.6665C64.9289 69.6665 62.7804 69.6685 60.6504 69.6705C58.5559 69.673 56.4804 69.675 54.4059 69.675ZM48.9884 67.669C52.8864 67.6785 56.7359 67.6745 60.6474 67.671C62.4524 67.6695 64.2709 67.6675 66.1139 67.667C66.1054 67.485 66.0949 67.293 66.0834 67.091C66.0488 66.55 66.0294 66.0081 66.0254 65.466C66.0254 62.053 60.6959 56.2805 58.1349 53.5065C56.4644 51.697 56.1634 51.371 56.1634 50.8025C56.1633 50.6088 56.2195 50.4192 56.3251 50.2569C56.4308 50.0945 56.5813 49.9663 56.7584 49.8879C56.9356 49.8095 57.1316 49.7843 57.3229 49.8153C57.5141 49.8463 57.6921 49.9322 57.8354 50.0625C58.0869 50.2155 59.0014 50.4355 59.3959 50.4355C60.4244 50.4355 61.1359 50.1885 61.8894 49.927C62.6454 49.6645 63.4264 49.3935 64.4574 49.3935C65.6964 49.3935 66.4819 50.204 67.1749 50.919C67.8919 51.6585 68.5104 52.2965 69.6304 52.2965C71.4244 52.2965 71.7979 51.7145 71.9769 51.435C72.0569 51.31 72.1479 51.1685 72.3019 51.04C72.3294 51.017 72.3579 50.9955 72.3879 50.9755C73.1009 50.5005 73.1529 50.222 73.1529 50.2195C73.1434 50.198 73.1294 50.1685 73.1214 50.1465C72.7703 49.2124 72.6978 48.1965 72.9129 47.222C71.4374 45.933 67.1359 42.1675 66.3554 41.387C65.7889 40.8205 65.5069 40.287 65.3009 39.8975C65.1359 39.585 65.0504 39.4305 64.9144 39.332C64.6059 39.1135 63.0499 38.5635 62.3029 38.299C61.1279 37.8835 60.9169 37.8085 60.6994 37.592C60.0659 36.9585 60.5229 36.2115 60.9204 35.721C60.3629 35.6977 59.8049 35.6869 59.2469 35.6885C58.2264 35.6885 57.7899 34.813 57.6584 32.0355C57.2007 32.8714 56.8081 33.7413 56.4839 34.6375C56.4142 34.8309 56.2864 34.9981 56.1181 35.1162C55.9497 35.2344 55.7491 35.2977 55.5434 35.2975C51.8209 35.2975 44.8764 40.6295 44.8764 50.8215C44.8764 53.899 46.4599 58.9525 47.6159 62.6425C47.9774 63.7965 48.2894 64.7925 48.5229 65.623C48.6854 66.1975 48.8679 66.9725 48.9884 67.669Z" fill="#222B3D"/>
<path d="M50.275 69.4955C50.057 69.4953 49.8451 69.4239 49.6714 69.2923C49.4976 69.1606 49.3716 68.9758 49.3125 68.766C49.051 67.834 48.631 66.575 48.1455 65.1175C46.7555 60.9465 45.0255 55.755 45.0255 52.525C45.0255 41.513 50.707 33.8385 55.8065 33.8385C56.0717 33.8385 56.3261 33.9439 56.5136 34.1314C56.7012 34.3189 56.8065 34.5733 56.8065 34.8385C56.8065 35.1037 56.7012 35.3581 56.5136 35.5456C56.3261 35.7331 56.0717 35.8385 55.8065 35.8385C52.226 35.8385 47.0255 42.3385 47.0255 52.525C47.0255 55.4305 48.7695 60.6635 50.043 64.485C50.5365 65.9665 50.963 67.246 51.238 68.2245C51.2799 68.3732 51.2867 68.5296 51.258 68.6814C51.2293 68.8332 51.1658 68.9763 51.0725 69.0994C50.9792 69.2225 50.8586 69.3224 50.7203 69.3911C50.5819 69.4598 50.4295 69.4956 50.275 69.4955Z" fill="white"/>
<path d="M74.0255 71.167C74.0255 72.5475 73.2115 73.667 72.207 73.667H43.844C42.8395 73.667 42.0255 72.5475 42.0255 71.167C42.0255 69.7865 42.8395 68.667 43.844 68.667H72.2075C73.2115 68.667 74.0255 69.7865 74.0255 71.167Z" fill="#758FFF"/>
<path d="M72.207 74.667H43.844C42.2635 74.667 41.0255 73.1295 41.0255 71.167C41.0255 69.2045 42.2635 67.667 43.844 67.667H72.2075C73.788 67.667 75.026 69.2045 75.026 71.167C75.026 73.1295 73.7875 74.667 72.207 74.667ZM43.844 69.667C43.5105 69.667 43.0255 70.2515 43.0255 71.167C43.0255 72.083 43.5105 72.667 43.844 72.667H72.2075C72.541 72.667 73.026 72.083 73.026 71.167C73.026 70.2515 72.541 69.667 72.2075 69.667H43.844ZM58.5355 43.076C58.5994 43.5961 58.8648 44.0703 59.2746 44.3968C59.6844 44.7232 60.2059 44.8759 60.7271 44.8219C61.2483 44.768 61.7275 44.5117 62.0617 44.1082C62.396 43.7047 62.5585 43.1861 62.5145 42.664L58.5355 43.076Z" fill="#222B3D"/>
<path d="M57.377 88.667C53.858 88.667 42.377 88.354 42.377 84.3265C42.377 84.199 42.393 84.0715 42.4255 83.948L44.5845 75.6665H44.0255C41.633 75.6665 40.0255 73.3395 40.0255 71.1665C40.0255 68.9935 41.633 66.6665 44.0255 66.6665H46.163L46.117 66.5035C45.8935 65.7085 45.586 64.7285 45.231 63.5935C44.0265 59.7495 42.377 54.4845 42.377 51.025C42.377 40.5625 49.1085 33.8835 54.4795 33.082C55.7375 29.954 57.126 28.37 58.613 28.37C59.0108 28.37 59.3924 28.528 59.6737 28.8093C59.955 29.0906 60.113 29.4722 60.113 29.87C60.113 31.6305 60.188 32.7555 60.268 33.4015C62.8515 33.4545 63.426 33.7165 63.84 34.027C64.0119 34.156 64.1542 34.3204 64.257 34.5092C64.3598 34.6979 64.4209 34.9066 64.4361 35.121C64.4513 35.3354 64.4202 35.5506 64.3449 35.7519C64.2697 35.9532 64.1521 36.1361 64 36.288L63.878 36.4105C65.08 36.844 65.9205 37.179 66.378 37.5095C66.9935 37.9545 67.281 38.4975 67.5115 38.9335C67.679 39.25 67.823 39.5235 68.1235 39.8235C68.842 40.5415 73.3635 44.503 75.0455 45.9685C75.2893 46.1811 75.4578 46.4667 75.526 46.7829C75.5942 47.0991 75.5584 47.4288 75.424 47.723C75.421 47.7315 75.1145 48.497 75.4535 49.446C75.731 50.104 76.041 51.6205 74.012 53.095C73.438 53.9435 72.3485 55 69.6305 55C67.452 55 66.205 53.714 65.38 52.863C65.0495 52.522 64.638 52.0975 64.4575 52.0975C63.8485 52.0975 63.3455 52.272 62.709 52.493C62.195 52.671 61.6025 52.8765 60.882 53.0075C64.732 57.2405 68.5255 61.915 68.5255 65.67C68.5255 66.075 68.532 66.3925 68.5375 66.667H71.5255C73.955 66.667 75.5255 68.4335 75.5255 71.167C75.5255 74.064 73.8435 76.167 71.5255 76.167H70.4345L72.3345 83.972C72.363 84.088 72.377 84.207 72.377 84.3265C72.377 88.354 60.896 88.667 57.377 88.667ZM45.505 84.028C46.761 84.7005 51.1395 85.667 57.377 85.667C63.631 85.667 68.017 84.695 69.2595 84.0225L67.068 75.022C67.0142 74.8013 67.0113 74.5712 67.0595 74.3491C67.1078 74.1271 67.2059 73.919 67.3465 73.7405C67.4868 73.5619 67.6658 73.4175 67.87 73.3182C68.0743 73.219 68.2984 73.1674 68.5255 73.1675H71.5255C72.086 73.1675 72.5255 72.289 72.5255 71.1675C72.5255 69.6675 71.8995 69.6675 71.5255 69.6675H67.0255C66.8203 69.6674 66.6172 69.6253 66.4289 69.5437C66.2406 69.462 66.0711 69.3426 65.9308 69.1928C65.7905 69.0431 65.6824 68.8661 65.6132 68.6729C65.544 68.4797 65.5152 68.2743 65.5285 68.0695C65.558 67.62 65.5505 67.302 65.5395 66.8205C65.5301 66.4372 65.5253 66.0539 65.525 65.6705C65.525 62.453 60.0885 56.5645 57.767 54.05C56.025 52.1635 55.6625 51.771 55.6625 51.007C55.6626 50.7228 55.7434 50.4444 55.8955 50.2043C56.0476 49.9643 56.2648 49.7724 56.5218 49.651C56.7788 49.5296 57.065 49.4837 57.3471 49.5187C57.6291 49.5536 57.8955 49.668 58.115 49.8485C58.3865 49.977 59.133 50.14 59.3955 50.14C60.34 50.14 60.9815 49.917 61.725 49.6595C62.483 49.3965 63.342 49.098 64.457 49.098C65.907 49.098 66.809 50.028 67.5335 50.7755C68.2925 51.5575 68.764 52 69.6305 52C71.1515 52 71.425 51.5735 71.556 51.3685C71.646 51.2285 71.7685 51.037 71.9815 50.8595C72.023 50.825 72.066 50.793 72.111 50.763C72.3715 50.5895 72.5185 50.455 72.5985 50.3695C72.296 49.4843 72.2175 48.5379 72.37 47.615C70.6925 46.149 66.7665 42.708 66.0025 41.944C65.3825 41.324 65.08 40.752 64.8595 40.3345C64.7705 40.1665 64.6695 39.9755 64.6215 39.941C64.307 39.742 62.8405 39.223 62.136 38.974C60.8715 38.5265 60.6435 38.446 60.3465 38.1495C59.7665 37.57 59.815 36.933 60.0445 36.399C59.7789 36.3946 59.5132 36.3924 59.2475 36.3925C58.128 36.3925 57.58 35.6785 57.323 34.08C57.1915 34.3871 57.0688 34.6979 56.955 35.012C56.8499 35.3018 56.6582 35.5522 56.4058 35.7292C56.1535 35.9062 55.8528 36.0013 55.5445 36.0015C52.094 36.0015 45.3775 41.3045 45.3775 51.0255C45.3775 54.026 46.948 59.038 48.0945 62.697C48.4575 63.8545 48.7705 64.8545 49.0055 65.692L49.094 66.003C49.2895 66.687 49.458 67.278 49.521 68.0435C49.5379 68.2502 49.5119 68.4581 49.4444 68.6542C49.377 68.8503 49.2696 69.0302 49.1292 69.1828C48.9887 69.3353 48.8182 69.4571 48.6283 69.5404C48.4384 69.6238 48.2334 69.6669 48.026 69.667H44.026C43.4965 69.667 43.026 70.506 43.026 71.167C43.026 71.828 43.4965 72.667 44.026 72.667H46.526C46.7552 72.6671 46.9813 72.7197 47.1871 72.8208C47.3928 72.9218 47.5726 73.0687 47.7127 73.25C47.8529 73.4314 47.9496 73.6425 47.9955 73.867C48.0414 74.0916 48.0353 74.3237 47.9775 74.5455L45.505 84.028Z" fill="#222B3D"/>
<defs>
<filter id="filter0_d_206_2" x="0" y="0" width="116" height="116" filterUnits="userSpaceOnUse" color-interpolation-filters="sRGB">
<feFlood flood-opacity="0" result="BackgroundImageFix"/>
<feColorMatrix in="SourceAlpha" type="matrix" values="0 0 0 0 0 0 0 0 0 0 0 0 0 0 0 0 0 0 127 0" result="hardAlpha"/>
<feOffset/>
<feGaussianBlur stdDeviation="2"/>
<feComposite in2="hardAlpha" operator="out"/>
<feColorMatrix type="matrix" values="0 0 0 0 0 0 0 0 0 0 0 0 0 0 0 0 0 0 0.05 0"/>
<feBlend mode="normal" in2="BackgroundImageFix" result="effect1_dropShadow_206_2"/>
<feBlend mode="normal" in="SourceGraphic" in2="effect1_dropShadow_206_2" result="shape"/>
</filter>
</defs>
</svg>
