<?xml version="1.0" standalone="no"?>
<!DOCTYPE svg PUBLIC "-//W3C//DTD SVG 20010904//EN"
 "http://www.w3.org/TR/2001/REC-SVG-20010904/DTD/svg10.dtd">
<svg version="1.0" xmlns="http://www.w3.org/2000/svg"
 width="1080.000000pt" height="1080.000000pt" viewBox="0 0 1080.000000 1080.000000"
 preserveAspectRatio="xMidYMid meet">
<metadata>
Created by potrace 1.14, written by Peter Selinger 2001-2017
</metadata>
<g transform="translate(0.000000,1080.000000) scale(0.100000,-0.100000)"
fill="#000000" stroke="none">
<path d="M4555 9165 c6 -297 12 -396 30 -485 9 -41 18 -90 20 -109 3 -19 8
-38 11 -43 3 -5 8 -23 11 -41 9 -62 11 -72 13 -72 3 0 6 -16 13 -68 3 -16 9
-33 15 -39 14 -14 9 538 -6 573 -6 15 -8 29 -5 32 3 3 1 11 -3 18 -4 7 -9 22
-10 33 -1 12 -5 32 -8 46 -7 26 -14 62 -21 115 -3 17 -6 37 -8 45 -8 31 -21
96 -22 110 -1 8 -5 22 -8 30 -3 8 -10 29 -16 45 -8 22 -10 -26 -6 -190z"/>
<path d="M6204 9348 c-4 -13 -9 -30 -10 -38 -3 -15 -15 -75 -19 -95 -2 -5 -5
-26 -9 -45 -7 -45 -14 -78 -22 -110 -3 -14 -7 -37 -8 -52 0 -16 -4 -28 -7 -28
-3 0 -5 -10 -5 -22 1 -13 0 -27 -3 -33 -3 -5 -7 -17 -10 -25 -8 -29 -12 -580
-4 -580 8 0 12 15 15 58 1 6 4 12 8 12 3 0 6 8 6 18 2 34 14 108 23 141 6 19
8 38 5 42 -3 5 -1 9 3 9 5 0 10 11 11 25 3 45 5 55 12 55 6 0 7 4 15 90 6 68
15 600 10 600 -2 0 -7 -10 -11 -22z"/>
<path d="M5378 8938 c-21 -17 -51 -84 -44 -97 4 -6 13 -8 21 -4 9 3 15 -1 15
-10 0 -8 7 -17 15 -21 9 -3 15 0 15 10 0 8 5 12 10 9 6 -3 10 -1 10 5 0 6 4 9
9 6 12 -8 22 19 10 31 -5 5 -17 25 -27 46 -15 32 -20 35 -34 25z"/>
<path d="M7062 8547 c-29 -29 -52 -58 -52 -65 0 -7 -3 -12 -7 -12 -5 0 -9 -18
-11 -40 -1 -22 2 -40 7 -40 4 0 29 20 54 44 42 40 58 72 72 148 6 29 -7 21
-63 -35z"/>
<path d="M3659 8583 c-8 -56 7 -92 65 -148 47 -46 51 -48 54 -27 4 24 -14 89
-31 110 -18 23 -87 74 -88 65z"/>
<path d="M2790 8309 c0 -8 18 -58 41 -110 22 -52 42 -98 43 -104 10 -36 60
-126 88 -156 18 -20 51 -57 73 -83 69 -80 119 -129 122 -119 2 5 -11 41 -28
79 -18 38 -34 78 -36 89 -2 10 -8 22 -14 26 -6 3 -11 10 -11 15 -2 23 -11 44
-19 44 -5 0 -8 3 -7 8 2 10 -13 43 -28 62 -7 8 -34 41 -59 73 -25 31 -50 57
-56 57 -5 0 -9 5 -9 11 0 7 -14 26 -30 43 -17 17 -39 42 -50 56 -14 18 -19 21
-20 9z"/>
<path d="M7970 8314 c0 -5 -13 -22 -28 -39 -25 -27 -131 -151 -184 -214 -17
-21 -37 -59 -43 -81 -7 -28 -18 -50 -24 -50 -4 0 -8 -6 -8 -12 0 -7 -14 -44
-31 -81 -18 -38 -35 -80 -38 -95 -5 -23 2 -17 49 33 159 174 205 231 213 268
1 4 3 9 4 12 1 3 3 8 4 13 1 4 10 22 19 40 10 17 15 32 12 32 -2 0 4 15 15 34
22 39 52 137 45 144 -3 3 -5 1 -5 -4z"/>
<path d="M1162 8051 c-69 -65 -123 -144 -129 -189 -5 -37 -3 -41 60 -95 35
-31 67 -57 70 -57 3 0 18 -12 34 -28 15 -15 40 -37 55 -48 l26 -21 -24 -102
c-33 -139 -32 -206 2 -257 32 -46 196 -233 253 -288 23 -21 41 -44 41 -51 0
-8 4 -15 9 -17 17 -5 205 -191 222 -218 25 -40 37 -84 69 -258 16 -90 32 -167
35 -171 2 -5 7 -28 10 -52 3 -24 8 -62 11 -84 3 -22 7 -65 10 -95 7 -91 13
-153 19 -195 5 -39 11 -106 21 -210 6 -73 12 -174 19 -314 3 -68 8 -127 11
-132 3 -5 2 -9 -3 -9 -4 0 -9 -60 -10 -133 -1 -72 -2 -196 -3 -274 -2 -128 0
-146 19 -187 24 -48 132 -156 157 -156 8 0 14 -4 14 -8 0 -5 29 -30 65 -56 36
-26 72 -54 80 -62 7 -8 17 -14 22 -14 5 0 23 -12 40 -27 17 -16 43 -37 57 -48
15 -11 34 -27 44 -35 9 -9 43 -33 75 -54 31 -21 57 -42 57 -47 0 -5 6 -9 13
-9 7 0 30 -15 50 -34 20 -18 37 -32 37 -29 0 2 10 -5 22 -17 12 -11 30 -20 39
-20 18 0 99 89 99 109 0 6 5 11 10 11 6 0 14 8 17 17 4 9 14 24 22 33 9 9 23
27 31 39 8 13 22 31 30 41 8 10 24 31 35 46 11 15 26 33 33 40 17 17 15 54 -2
54 -13 0 -13 4 -1 34 14 33 13 36 -11 65 -13 16 -55 51 -92 77 -37 26 -69 50
-72 53 -3 4 -25 20 -50 36 -25 16 -47 33 -50 36 -5 6 -121 87 -149 104 -9 6
-18 12 -21 15 -12 12 -86 65 -91 65 -3 0 -25 19 -50 42 -28 27 -38 43 -28 43
14 0 130 33 169 47 21 8 31 11 64 18 16 3 37 10 46 15 9 5 28 11 41 14 13 3
53 14 89 25 36 11 135 40 220 65 85 25 162 49 170 53 8 3 22 7 30 9 34 7 126
37 137 46 8 7 9 -1 3 -29 -20 -89 -20 -120 -3 -193 9 -41 22 -78 28 -82 5 -3
21 -16 35 -28 14 -12 36 -30 50 -38 14 -9 29 -22 33 -29 5 -8 12 -11 18 -8 5
4 9 1 9 -4 0 -6 3 -10 8 -10 4 1 9 0 12 -1 3 -1 16 -3 30 -5 14 -2 36 -6 50
-10 71 -17 78 -18 270 -30 128 -8 165 -17 210 -51 19 -14 44 -30 55 -35 69
-33 69 -33 7 -65 -31 -16 -59 -32 -62 -35 -5 -5 -178 -102 -245 -137 -16 -9
-35 -21 -40 -26 -9 -10 -12 -43 -5 -63 1 -5 2 -12 1 -16 -1 -4 6 -10 14 -13 8
-3 13 -10 10 -14 -4 -7 22 -36 96 -107 35 -32 166 -103 192 -103 7 0 17 -3 21
-7 4 -5 12 -9 17 -9 5 -1 10 -2 12 -4 1 -1 13 -4 27 -6 50 -9 56 -10 65 -15 9
-5 150 -3 235 3 51 4 79 36 58 64 -5 7 -8 16 -7 20 1 5 -3 22 -9 37 -7 16 -12
33 -12 38 0 5 -4 17 -10 27 -5 9 -19 44 -31 77 -59 170 -82 231 -89 240 -9 12
-35 90 -30 90 2 0 -5 10 -15 23 -11 12 -25 22 -32 22 -7 0 -13 5 -13 10 0 9
-22 162 -35 240 -2 14 -7 48 -11 75 -3 28 -8 59 -11 70 -2 11 -6 34 -8 50 -2
17 -6 45 -9 64 -5 32 -27 66 -77 122 -13 15 -35 41 -49 59 -14 18 -40 48 -57
67 -18 19 -33 37 -33 40 0 3 -10 16 -22 28 -23 22 -29 28 -107 125 -24 30 -51
62 -60 71 -9 9 -34 38 -56 65 -22 27 -54 64 -70 84 -59 68 -58 64 -34 104 l21
37 -28 25 c-43 37 -53 44 -59 44 -6 0 -23 13 -55 42 -10 9 -22 13 -26 10 -31
-26 34 47 100 113 79 78 116 120 116 131 0 7 43 68 55 76 6 4 7 8 2 8 -4 0 0
12 10 26 32 50 28 57 -99 176 -67 62 -154 143 -194 180 -39 37 -69 69 -66 72
3 3 -1 6 -8 6 -8 0 -52 37 -99 82 -150 142 -165 155 -311 272 -8 6 -19 12 -23
13 -5 1 -18 13 -31 27 -12 14 -27 26 -34 26 -7 0 -12 3 -12 8 0 4 -23 22 -50
41 -28 19 -50 38 -50 43 0 4 -6 8 -14 8 -7 0 -19 7 -26 15 -6 8 -35 30 -63 49
-29 19 -62 44 -74 55 -12 12 -25 21 -28 21 -4 0 -59 36 -124 80 -64 44 -122
80 -127 80 -5 0 -19 11 -31 23 -11 13 -38 32 -60 42 -21 11 -40 22 -43 25 -9
9 -124 84 -150 98 -14 7 -38 23 -55 36 -16 12 -37 25 -45 29 -8 3 -44 25 -79
50 -65 45 -74 47 -161 33 -48 -7 -124 -41 -197 -89 -50 -33 -97 -42 -114 -21
-7 9 -24 21 -38 29 -14 7 -55 36 -91 64 -36 28 -69 54 -75 58 -28 22 -66 10
-113 -36z m1984 -2102 c21 -2 38 -8 105 -36 35 -14 116 -12 142 4 10 6 66 -56
67 -74 0 -7 8 -16 18 -22 9 -5 15 -11 12 -13 -2 -2 11 -25 29 -52 27 -38 30
-47 15 -42 -24 7 -86 18 -184 32 -19 2 -46 7 -60 10 -54 11 -96 17 -127 18
-18 1 -33 5 -33 9 0 4 -6 7 -12 6 -7 -1 -33 1 -58 5 -25 4 -58 9 -75 11 -16 2
-40 6 -52 9 -11 2 -42 8 -67 11 -25 4 -43 12 -40 17 8 12 231 118 249 118 8 0
17 5 20 10 4 6 12 4 21 -5 9 -8 22 -16 30 -16z m-336 -278 c58 -19 114 -39
125 -45 11 -5 29 -11 40 -13 19 -3 49 -15 87 -34 10 -5 25 -9 33 -9 8 0 23 -4
33 -10 9 -5 60 -23 112 -41 131 -43 129 -41 68 -73 -94 -48 -158 -83 -173 -96
-8 -7 -15 -9 -15 -4 0 5 -4 4 -8 -2 -6 -10 -119 -76 -182 -106 -14 -7 -37 -20
-52 -31 -16 -10 -28 -15 -28 -12 0 4 -7 -1 -16 -9 -8 -9 -19 -14 -24 -11 -4 3
-11 -2 -14 -11 -4 -9 -9 -14 -13 -11 -3 4 -18 -2 -32 -12 -14 -10 -54 -33 -88
-51 -35 -18 -63 -37 -63 -41 0 -5 -6 -6 -13 -3 -7 2 -22 -4 -34 -15 -12 -11
-33 -23 -47 -27 -14 -3 -26 -10 -26 -16 0 -5 -4 -6 -10 -3 -5 3 -10 3 -10 -2
0 -4 -13 -16 -29 -25 l-30 -16 -8 56 c-12 90 -7 240 11 322 16 77 70 200 87
200 5 0 9 7 9 15 0 8 5 15 10 15 6 0 10 6 10 14 0 24 93 118 135 136 22 9 42
14 45 11 3 -4 52 -22 110 -40z"/>
<path d="M9540 8090 c0 -6 -4 -9 -8 -6 -5 3 -20 -6 -34 -19 -15 -14 -32 -26
-38 -27 -6 -2 -27 -18 -46 -35 -20 -18 -42 -33 -51 -33 -8 0 -28 -11 -44 -24
-27 -23 -69 -26 -69 -5 0 5 -4 9 -9 9 -12 0 -103 60 -113 74 -4 6 -8 7 -8 3 0
-4 -10 -2 -22 5 -13 7 -26 11 -30 10 -5 -1 -8 3 -8 9 0 6 -6 9 -14 6 -8 -3
-17 -3 -20 1 -6 5 -20 8 -76 15 -14 2 -42 -7 -64 -21 -22 -13 -45 -25 -51 -26
-7 -1 -20 -10 -29 -19 -10 -9 -22 -15 -27 -12 -5 4 -9 1 -9 -5 0 -6 -5 -8 -10
-5 -6 3 -13 0 -16 -9 -5 -13 -68 -50 -87 -51 -5 0 -14 -8 -21 -17 -7 -10 -16
-15 -19 -11 -4 3 -7 1 -7 -5 0 -7 -6 -12 -14 -12 -7 0 -19 -7 -26 -15 -7 -8
-16 -12 -21 -9 -5 3 -9 0 -9 -5 0 -6 -6 -11 -14 -11 -8 0 -21 -6 -28 -13 -17
-17 -108 -71 -108 -63 0 3 -11 -5 -25 -18 -14 -13 -46 -34 -72 -47 -27 -13
-50 -27 -53 -30 -13 -14 -156 -102 -167 -102 -7 0 -13 -6 -13 -14 0 -7 -7 -13
-15 -13 -8 0 -15 -5 -15 -11 0 -6 -6 -9 -14 -6 -8 3 -17 -1 -20 -9 -3 -9 -10
-13 -15 -9 -5 3 -12 -4 -16 -15 -4 -11 -10 -18 -15 -15 -5 3 -14 -1 -22 -8
-26 -26 -128 -97 -128 -90 0 4 -7 -3 -16 -15 -8 -12 -22 -22 -30 -22 -8 0 -14
-4 -14 -8 0 -4 -15 -16 -32 -27 -18 -10 -35 -22 -38 -25 -3 -4 -34 -31 -70
-59 -65 -52 -130 -105 -156 -129 -12 -11 -14 -11 -14 0 0 7 -8 0 -18 -17 -10
-16 -41 -48 -68 -70 -27 -22 -55 -45 -62 -52 -8 -7 -18 -11 -23 -8 -5 4 -9 2
-9 -3 0 -11 -54 -72 -65 -72 -4 0 -25 -18 -47 -40 -22 -22 -44 -38 -48 -35 -4
2 -12 -7 -18 -20 -7 -14 -18 -25 -26 -25 -8 0 -28 -16 -45 -35 -17 -20 -31
-33 -31 -29 0 4 -20 -15 -45 -41 -36 -37 -44 -52 -39 -69 4 -11 7 -26 7 -33 0
-7 7 -15 14 -17 8 -3 11 -10 8 -16 -3 -5 -1 -10 4 -10 6 0 11 -7 11 -15 0 -8
9 -24 20 -35 11 -11 20 -24 20 -30 0 -5 5 -10 11 -10 5 0 7 -5 4 -10 -3 -6 1
-13 9 -16 9 -3 16 -11 16 -17 0 -5 33 -42 72 -81 40 -39 72 -74 70 -78 -1 -5
2 -8 8 -8 5 0 7 -7 4 -15 -4 -8 -11 -15 -16 -15 -6 0 -18 -9 -28 -20 -9 -11
-34 -27 -54 -35 -20 -8 -36 -20 -36 -26 0 -5 -4 -8 -9 -4 -18 11 -22 -14 -7
-47 21 -47 49 -76 77 -79 21 -3 37 6 83 46 6 6 19 16 29 24 17 14 17 13 0 -17
-10 -18 -22 -32 -28 -32 -5 0 -19 -13 -30 -29 -11 -16 -49 -62 -84 -103 -35
-40 -77 -90 -95 -110 -17 -21 -57 -66 -88 -100 -32 -35 -58 -66 -58 -70 0 -3
-17 -24 -37 -47 -21 -22 -56 -60 -78 -86 -22 -25 -50 -57 -62 -70 -13 -13 -23
-27 -23 -31 0 -4 -14 -20 -31 -35 -32 -28 -57 -68 -66 -104 -14 -56 -42 -238
-59 -377 -10 -87 -22 -158 -26 -158 -4 0 -8 4 -8 8 0 10 -30 9 -47 -1 -6 -4
-17 -24 -23 -45 -6 -20 -14 -44 -17 -52 -4 -8 -5 -18 -5 -22 1 -5 -2 -8 -7 -8
-5 0 -13 -17 -19 -37 -6 -21 -20 -63 -32 -93 -12 -30 -35 -91 -50 -134 -16
-43 -35 -83 -42 -87 -10 -7 -10 -9 0 -9 10 0 10 -4 0 -22 -7 -13 -17 -26 -22
-29 -4 -4 -3 -10 3 -14 8 -4 9 -11 2 -19 -19 -23 -5 -57 27 -63 88 -18 332
-19 332 -1 0 6 34 21 55 24 9 1 21 5 93 36 15 6 29 12 32 12 9 2 75 50 81 59
4 5 12 6 18 3 6 -4 11 -3 11 1 0 5 15 25 33 44 41 43 90 140 82 160 -3 8 -19
23 -35 33 -17 9 -30 23 -30 29 0 7 -4 6 -10 -3 -7 -11 -10 -11 -10 -2 0 7 -4
10 -10 7 -5 -3 -10 1 -10 10 0 9 -4 14 -10 10 -5 -3 -17 2 -27 12 -10 10 -22
18 -28 18 -14 0 -99 46 -106 57 -3 5 -9 10 -12 9 -14 -1 -74 28 -99 49 -15 12
-32 18 -38 15 -5 -3 -10 -2 -10 4 0 10 58 47 126 81 40 19 59 22 234 35 156
12 193 15 202 21 6 4 29 8 51 10 52 5 96 22 123 49 11 11 35 31 54 45 61 47
68 56 89 119 16 49 20 81 16 146 l-4 84 32 -14 c33 -14 292 -96 362 -114 22
-6 90 -27 150 -47 61 -19 117 -37 125 -39 8 -2 17 -4 20 -5 3 -1 9 -2 14 -1 5
1 12 -2 15 -6 3 -5 39 -19 79 -31 40 -13 72 -28 70 -33 -5 -13 -141 -109 -155
-109 -7 0 -13 -3 -13 -7 0 -8 -117 -88 -129 -88 -3 0 -19 -12 -35 -27 -17 -15
-35 -24 -44 -20 -11 4 -13 2 -7 -8 6 -10 4 -12 -8 -7 -9 3 -18 0 -21 -9 -3 -9
-10 -13 -15 -9 -5 3 -12 -3 -15 -13 -4 -10 -26 -29 -51 -41 -25 -12 -45 -27
-45 -32 0 -6 -5 -7 -11 -4 -6 4 -17 -1 -24 -11 -8 -11 -15 -15 -15 -10 0 6 -7
1 -15 -10 -8 -11 -14 -41 -15 -71 0 -36 -4 -52 -12 -50 -18 3 -16 -26 4 -43 9
-8 18 -21 20 -29 2 -7 14 -26 28 -41 36 -40 75 -95 79 -112 1 -4 15 -22 31
-40 17 -18 30 -38 30 -45 0 -7 5 -13 11 -13 6 0 9 -7 5 -15 -3 -8 0 -14 6 -12
7 1 17 -8 22 -20 6 -12 20 -24 31 -26 19 -3 72 26 87 48 4 5 8 6 8 1 0 -4 14
5 31 22 17 17 38 28 45 25 9 -3 14 1 14 12 0 9 4 13 10 10 5 -3 15 3 22 15 7
11 18 20 24 20 6 0 25 13 44 30 18 16 41 32 51 35 9 3 20 13 23 21 3 8 10 13
15 10 5 -4 24 7 42 23 18 17 36 28 41 25 4 -3 8 -1 8 5 0 11 118 98 127 93 2
-2 13 6 22 17 10 12 22 21 26 21 9 0 78 54 116 92 67 67 65 60 73 413 6 258
14 436 21 485 3 19 7 62 10 95 2 33 9 92 15 130 7 39 13 88 15 110 1 22 8 78
14 125 7 47 14 99 16 115 2 17 4 30 5 30 1 0 3 17 5 38 2 21 6 55 10 75 4 20
9 52 11 71 3 19 7 38 10 43 3 5 8 24 10 41 3 18 8 39 11 47 9 20 14 49 15 83
0 15 4 27 9 27 5 0 9 8 9 18 0 10 3 22 7 25 3 4 7 22 8 39 2 43 24 118 33 118
4 0 8 9 9 19 2 24 77 101 99 101 8 0 12 5 9 10 -3 6 1 10 9 10 8 0 19 7 24 16
5 9 88 95 184 192 96 98 177 182 179 187 2 6 17 20 33 33 16 12 26 22 23 22
-3 0 5 20 18 45 13 24 22 54 20 67 -3 13 -11 57 -19 98 -9 41 -18 95 -20 120
l-6 45 67 52 c47 36 70 48 75 40 5 -8 8 -7 8 4 0 9 9 24 20 34 11 10 20 15 20
11 0 -4 14 9 30 27 32 37 36 60 18 104 -6 15 -11 31 -10 36 1 4 -2 7 -7 7 -5
0 -23 21 -40 48 -43 66 -94 113 -130 118 -19 3 -31 1 -31 -6z m-1832 -2092 c2
-4 10 -8 18 -8 8 0 14 -5 14 -11 0 -6 7 -9 15 -5 8 3 15 2 15 -2 0 -4 26 -19
58 -35 31 -15 73 -40 92 -57 19 -16 41 -35 48 -41 18 -15 14 -18 -48 -24 -30
-3 -73 -8 -95 -11 -22 -3 -48 -5 -57 -5 -10 0 -18 -3 -18 -7 0 -4 -10 -8 -22
-8 -13 -1 -43 -5 -68 -8 -25 -4 -62 -8 -82 -9 -21 -1 -38 -4 -38 -7 0 -3 -12
-5 -27 -5 -16 1 -34 -3 -40 -8 -7 -5 -13 -6 -13 -2 0 4 -6 2 -14 -4 -10 -8
-16 -9 -21 -1 -3 6 -11 7 -17 4 -6 -4 -25 -9 -42 -11 -67 -8 -92 -12 -123 -22
-18 -5 -33 -7 -33 -4 0 8 114 178 123 181 4 2 7 8 7 14 0 5 12 25 26 43 19 26
30 33 43 27 18 -9 31 -9 46 -1 6 3 17 5 25 4 8 0 18 4 22 10 4 5 15 11 25 12
10 2 36 7 58 12 43 9 118 3 123 -11z m444 -331 c26 -27 46 -53 43 -56 -2 -4 5
-15 16 -25 12 -9 18 -23 15 -31 -2 -7 2 -16 11 -19 9 -4 13 -9 10 -12 -3 -3 5
-16 19 -29 17 -16 21 -25 13 -30 -8 -6 -7 -10 5 -17 9 -5 14 -13 11 -18 -3 -4
0 -21 6 -37 6 -15 12 -55 14 -88 2 -33 4 -60 5 -60 1 0 4 -30 5 -67 2 -54 0
-68 -13 -73 -10 -4 -12 -9 -6 -13 6 -5 7 -26 1 -60 -8 -52 -10 -53 -35 -47
-15 4 -29 10 -32 13 -3 4 -18 14 -35 22 -68 34 -240 132 -245 139 -4 6 -34 22
-50 25 -9 3 -55 29 -60 35 -3 3 -44 26 -93 51 -48 24 -87 47 -87 50 0 3 -16
12 -35 19 -19 7 -35 17 -35 22 0 5 -6 9 -12 9 -7 0 -55 24 -106 54 l-92 53 42
16 c24 8 58 18 76 22 17 4 32 10 32 14 0 4 6 8 13 9 28 2 48 9 58 19 6 6 18 9
25 6 8 -3 14 0 14 7 0 6 6 10 13 7 6 -2 27 2 44 10 18 7 34 13 35 12 2 -1 21
6 43 16 22 9 87 33 145 52 58 19 111 38 117 42 32 17 60 6 105 -42z"/>
<path d="M4773 6479 c-18 -7 -72 -85 -122 -178 -8 -14 -20 -32 -28 -39 -7 -7
-13 -20 -13 -28 0 -8 -4 -14 -10 -14 -5 0 -12 -11 -16 -25 -3 -14 -10 -25 -14
-25 -16 0 -30 -65 -30 -140 0 -66 3 -81 23 -102 12 -14 36 -41 52 -61 52 -63
79 -91 125 -127 25 -19 50 -39 56 -45 6 -5 30 -26 54 -45 24 -19 48 -40 55
-47 7 -7 15 -9 19 -6 3 3 8 -2 12 -11 3 -9 10 -14 14 -11 4 3 13 -2 20 -10 7
-8 17 -15 22 -15 6 0 27 -13 48 -30 54 -43 140 -100 151 -100 11 0 49 -21 64
-35 38 -36 83 -99 79 -110 -3 -7 8 -28 24 -46 l29 -32 21 23 c12 13 29 44 39
68 22 58 97 132 133 132 14 0 151 92 168 113 7 8 27 21 45 28 18 7 37 17 42
21 6 5 37 29 69 54 33 24 64 50 70 57 6 7 31 29 56 49 62 50 149 138 136 138
-3 0 11 17 29 38 34 36 35 39 35 123 0 76 -3 91 -25 123 -14 20 -25 41 -25 46
0 6 -5 10 -11 10 -5 0 -7 5 -4 10 3 6 2 10 -4 10 -5 0 -13 10 -17 23 -4 12
-10 24 -13 27 -4 3 -28 42 -54 87 -62 106 -67 109 -120 93 -23 -6 -47 -16 -52
-21 -6 -4 -33 -10 -60 -13 -74 -8 -858 -8 -918 0 -29 4 -70 17 -92 29 -28 15
-47 20 -62 14z"/>
<path d="M6447 5839 c-45 -18 -88 -20 -136 -4 -15 4 -26 -3 -48 -32 -40 -53
-56 -69 -105 -99 -24 -15 -63 -44 -88 -64 -60 -49 -126 -90 -134 -83 -3 4 -6
1 -6 -5 0 -7 -7 -12 -15 -12 -8 0 -15 -3 -15 -8 0 -4 -9 -12 -19 -17 -132 -68
-327 -200 -374 -253 -27 -30 -34 -69 -24 -134 8 -46 18 -68 49 -103 42 -48 93
-83 123 -86 77 -6 176 -1 189 10 9 8 16 10 16 6 0 -9 68 33 104 65 38 34 83
126 99 203 8 34 19 72 26 84 11 21 91 71 91 58 0 -4 14 2 30 12 17 9 30 21 30
26 0 4 9 20 19 35 11 15 54 81 96 147 43 66 95 146 116 178 36 53 50 98 32 96
-5 0 -30 -9 -56 -20z"/>
<path d="M4256 5835 c-3 -8 -2 -15 2 -15 5 0 21 -21 38 -47 86 -136 114 -179
123 -190 6 -7 11 -15 11 -18 0 -3 5 -11 10 -18 6 -7 31 -44 56 -83 25 -39 60
-79 78 -90 17 -10 31 -16 32 -14 0 3 8 -1 17 -9 10 -7 17 -10 17 -5 0 4 11 -3
25 -16 16 -15 28 -42 35 -79 19 -94 56 -170 113 -226 44 -44 70 -63 97 -70 3
0 21 -7 42 -13 20 -7 60 -11 90 -8 29 2 65 5 80 5 18 1 47 19 87 57 67 61 81
94 81 182 0 65 -20 98 -85 139 -25 15 -45 32 -45 36 0 5 -4 5 -10 2 -5 -3 -10
-2 -10 3 0 6 -44 36 -97 68 -54 32 -128 77 -165 101 -37 24 -72 43 -77 43 -6
0 -11 5 -11 10 0 6 -5 10 -12 10 -10 0 -104 67 -136 98 -7 6 -17 12 -20 12 -4
0 -20 11 -35 25 -15 14 -27 22 -27 18 0 -4 -17 17 -37 46 -36 51 -38 52 -72
45 -60 -12 -84 -12 -125 2 -49 18 -63 18 -70 -1z"/>
<path d="M5336 4984 c-20 -19 -36 -40 -36 -46 -1 -18 -69 -68 -94 -69 -12 0
-30 -2 -41 -5 -117 -25 -400 28 -418 78 -2 7 -7 11 -10 8 -2 -3 -8 -156 -12
-340 -6 -300 -5 -340 10 -377 15 -37 18 -40 33 -28 9 8 42 35 74 60 31 25 63
60 71 78 9 18 27 50 42 71 14 21 27 43 28 49 1 7 4 14 7 17 3 3 15 26 27 53
13 26 26 47 30 48 5 0 15 2 23 4 53 11 70 13 75 5 3 -5 14 -7 25 -5 11 2 20 0
20 -4 0 -5 13 -14 29 -21 67 -27 83 -160 71 -582 -2 -65 -6 -118 -9 -118 -3 0
-6 -55 -7 -123 -2 -245 -6 -332 -18 -339 -8 -6 -8 -8 1 -8 7 0 10 -6 8 -12 -2
-7 -7 -62 -10 -123 -3 -60 -8 -126 -11 -145 -3 -19 -7 -46 -8 -60 -13 -99 -27
-163 -51 -240 -4 -13 -48 -109 -66 -146 -11 -22 -33 -55 -49 -72 -15 -17 -30
-37 -32 -43 -2 -7 -40 -40 -84 -74 -68 -54 -79 -66 -78 -91 2 -25 40 -169 74
-274 6 -19 13 -42 15 -51 2 -8 9 -38 17 -65 8 -27 13 -59 12 -71 -1 -13 2 -23
5 -23 3 0 6 -12 7 -27 0 -16 4 -57 8 -93 5 -36 10 -83 11 -105 2 -22 4 -40 5
-40 1 0 4 -16 6 -35 2 -19 6 -53 9 -75 4 -22 7 -66 8 -97 1 -32 6 -58 10 -58
5 0 7 -12 6 -27 -2 -31 9 -82 23 -99 6 -8 1 -14 -14 -18 -34 -8 -103 -78 -124
-125 -10 -22 -21 -41 -24 -41 -7 0 -8 -3 -16 -72 -4 -32 -1 -57 9 -77 l14 -29
-34 0 c-35 0 -35 0 -29 36 4 21 8 46 10 57 10 60 19 95 25 95 4 0 8 12 9 27 1
15 9 37 18 50 12 19 14 41 10 96 -3 40 -8 113 -11 162 -3 50 -8 97 -10 105 -2
8 -7 53 -10 100 -3 47 -15 120 -25 164 -11 43 -18 82 -15 86 3 5 0 10 -6 12
-6 2 -11 20 -12 41 0 20 -6 37 -12 37 -6 0 -12 10 -13 23 -2 25 -10 62 -12 62
-1 0 -4 11 -7 25 -6 33 -9 42 -16 60 -4 8 -8 24 -10 35 -1 11 -6 25 -10 32 -4
6 -1 14 5 16 8 3 6 6 -5 6 -10 1 -16 5 -13 10 4 5 3 11 -1 13 -5 1 -28 45 -53
97 -38 79 -96 161 -115 161 -3 0 -17 8 -32 17 -19 13 -48 18 -97 19 -60 1 -73
-2 -95 -22 -14 -13 -32 -24 -40 -24 -8 0 -12 -3 -8 -6 3 -4 -1 -23 -9 -42 -14
-33 -26 -89 -27 -119 0 -7 -3 -13 -6 -13 -3 0 -7 -21 -7 -48 -4 -118 -10 -168
-22 -181 -7 -8 -10 -17 -5 -20 15 -11 13 -31 -2 -31 -13 0 -14 -4 -5 -20 9
-17 8 -20 -7 -20 -14 0 -15 -2 -4 -9 9 -6 10 -10 2 -12 -7 -3 -13 -12 -15 -22
-1 -9 -12 -28 -23 -41 -12 -13 -20 -26 -17 -28 2 -3 -16 -28 -40 -56 -24 -28
-46 -49 -49 -46 -3 3 -21 -3 -41 -13 l-36 -18 30 -35 c17 -19 30 -40 30 -46 0
-7 7 -14 15 -18 8 -3 14 -9 13 -13 -2 -5 9 -21 24 -37 15 -16 35 -44 44 -62
21 -39 41 -46 83 -28 17 7 31 10 31 7 0 -3 7 0 15 7 8 7 15 9 15 5 0 -4 6 -3
13 4 10 8 17 7 25 -1 7 -7 12 -8 12 -2 0 6 22 16 49 23 40 10 54 10 73 0 13
-7 24 -11 26 -10 7 6 82 -36 82 -46 0 -7 5 -13 10 -13 6 0 10 -7 10 -15 0 -7
7 -18 15 -23 9 -4 18 -21 21 -38 2 -16 9 -50 16 -75 8 -35 8 -58 -1 -95 -14
-58 -69 -144 -111 -175 -35 -27 -37 -38 -9 -73 11 -14 17 -30 14 -36 -3 -5 0
-10 8 -10 8 0 18 -7 21 -16 3 -8 10 -13 15 -10 5 3 11 0 14 -8 4 -10 -3 -14
-28 -14 -19 0 -38 -3 -44 -7 -6 -3 -11 -1 -11 5 0 6 -5 8 -11 5 -13 -9 -82
-12 -419 -20 -900 -21 -1164 -42 -575 -45 850 -4 1175 -9 1175 -20 0 -5 10 -6
21 -3 15 4 27 0 35 -12 10 -14 14 -15 14 -4 1 11 4 10 14 -3 7 -10 17 -18 21
-18 4 0 21 -10 38 -22 18 -13 34 -22 37 -20 3 1 13 -5 23 -13 10 -9 22 -13 27
-10 5 3 28 -4 50 -15 23 -12 46 -20 51 -18 12 4 -33 68 -49 68 -6 0 -22 12
-35 26 -12 15 -31 35 -42 46 -20 19 -19 19 23 12 35 -5 55 -19 116 -78 80 -78
106 -100 106 -90 0 3 7 0 17 -7 12 -11 61 -14 217 -14 200 0 201 0 246 27 25
14 73 56 107 92 51 54 70 67 104 72 40 7 41 6 30 -15 -7 -12 -16 -19 -20 -16
-5 2 -19 -11 -32 -30 -13 -19 -27 -35 -31 -35 -17 0 -24 -5 -40 -26 -24 -29
-23 -37 3 -29 12 4 27 8 33 9 6 1 17 5 24 10 7 4 16 5 19 2 3 -3 11 1 17 9 6
8 23 16 39 17 15 1 27 6 27 10 0 4 14 15 31 23 16 9 39 25 51 37 12 12 29 18
43 15 13 -2 29 0 36 4 7 4 21 3 31 -2 10 -5 18 -6 18 -2 0 5 26 9 58 9 31 1
215 4 407 7 193 4 498 7 679 7 181 0 327 2 325 4 -8 8 -96 15 -244 21 -82 3
-197 7 -255 10 -87 4 -553 15 -772 19 -32 1 -58 5 -58 10 0 5 -6 3 -13 -3 -8
-6 -17 -8 -20 -5 -4 4 -17 8 -29 9 -13 1 -27 3 -31 4 -4 0 11 22 35 47 24 25
43 50 43 54 0 5 3 12 8 16 12 13 8 19 -28 38 -21 12 -31 22 -25 26 7 4 1 14
-15 24 -16 10 -24 23 -21 32 3 8 -1 14 -10 14 -21 0 -46 61 -32 78 8 9 6 12
-7 12 -15 0 -17 6 -11 48 4 26 8 56 10 67 3 11 5 27 5 36 1 23 74 129 88 129
7 0 28 9 48 20 20 11 35 15 35 9 0 -8 5 -7 15 1 11 9 21 10 42 1 16 -6 40 -12
56 -13 15 -1 27 -5 27 -8 0 -3 12 -7 27 -8 15 -1 29 -5 32 -10 3 -4 15 -7 26
-6 11 0 27 -3 36 -7 11 -5 23 -2 35 11 29 30 49 54 49 61 0 11 89 129 97 129
5 0 8 7 8 15 0 8 5 15 11 15 24 0 1 23 -35 35 -21 7 -49 24 -63 37 -38 35
-106 138 -91 138 10 0 10 2 -1 9 -7 5 -10 14 -7 20 4 6 0 11 -8 11 -9 0 -17 9
-17 20 -1 11 -2 28 -2 38 -1 9 -4 19 -8 22 -4 3 -10 32 -13 65 -23 253 -38
322 -77 364 -44 48 -156 68 -202 38 -15 -9 -30 -17 -34 -17 -5 0 -14 -10 -22
-21 -10 -18 -15 -19 -22 -8 -7 12 -9 12 -9 -1 0 -8 -13 -29 -30 -46 -16 -18
-26 -35 -23 -38 4 -3 1 -6 -6 -6 -7 0 -9 -4 -6 -10 3 -5 2 -10 -3 -10 -5 0 -9
-6 -9 -12 0 -7 -16 -46 -36 -86 -19 -39 -33 -72 -30 -72 3 0 1 -6 -4 -12 -6
-7 -14 -31 -18 -53 -9 -45 -12 -54 -15 -57 -4 -6 -12 -44 -13 -65 0 -13 -6
-23 -12 -23 -6 0 -10 -16 -10 -36 1 -20 -3 -41 -9 -47 -6 -7 -13 -23 -15 -37
-6 -43 -6 -45 -13 -56 -9 -14 -26 -120 -33 -204 -3 -36 -8 -87 -11 -115 -10
-95 -19 -291 -14 -305 1 -3 3 -13 6 -23 8 -33 11 -42 28 -81 9 -21 15 -41 12
-43 -3 -3 0 -15 6 -26 6 -12 11 -37 12 -56 1 -20 5 -42 10 -49 12 -19 5 -21
-34 -13 -22 4 -30 10 -22 14 17 11 15 115 -2 147 -8 14 -24 43 -35 65 -32 61
-58 86 -103 101 -21 7 -21 5 -9 75 5 30 12 81 16 114 3 33 8 80 11 105 2 25 6
65 9 90 2 25 4 45 5 45 1 0 3 18 5 40 3 22 7 58 10 80 3 22 7 58 10 80 10 92
16 124 34 184 6 19 8 38 5 42 -3 5 0 9 5 9 6 0 10 3 9 8 0 4 1 14 5 22 10 25
77 271 77 282 0 5 -9 21 -20 35 -11 14 -20 23 -20 19 0 -4 -6 -1 -13 6 -8 7
-29 24 -47 38 -34 25 -46 38 -98 100 -33 39 -72 105 -72 121 0 6 -11 33 -25
60 -13 27 -22 49 -19 49 2 0 -3 14 -11 30 -9 17 -13 35 -10 40 3 5 1 11 -5 15
-5 3 -8 19 -6 35 2 17 0 30 -5 30 -5 0 -8 10 -8 23 1 12 -1 32 -4 44 -13 51
-19 143 -31 448 -12 289 -17 382 -22 455 -17 241 -5 514 26 582 7 15 26 32 41
39 16 6 29 15 29 19 0 3 6 7 13 8 6 0 30 3 52 6 46 6 105 -22 105 -50 0 -9 23
-54 50 -101 28 -47 50 -87 50 -91 0 -3 25 -31 55 -63 30 -32 55 -55 55 -52 0
4 10 -3 23 -15 21 -20 25 -20 43 -8 18 14 19 28 19 248 0 128 -2 291 -5 363
l-5 130 -20 -21 c-29 -30 -52 -40 -125 -52 -161 -27 -252 -30 -321 -12 -40 11
-64 30 -130 107 -39 45 -61 46 -103 7z m-129 -2686 c-28 -46 -32 -62 -33 -126
-1 -40 3 -75 8 -78 4 -3 6 -10 3 -15 -4 -5 -1 -9 5 -9 6 0 9 -4 5 -9 -3 -5 -1
-12 5 -16 6 -4 8 -10 5 -15 -3 -5 -1 -11 5 -15 5 -3 10 -15 10 -25 0 -10 7
-25 15 -34 8 -8 15 -18 15 -23 0 -5 10 -21 21 -35 12 -15 40 -55 63 -89 42
-64 66 -84 66 -54 0 9 5 13 10 10 6 -3 10 3 10 14 0 12 4 21 9 21 5 0 13 10
17 22 4 12 17 30 29 39 11 10 30 37 40 61 10 24 24 50 31 58 6 8 20 40 31 70
22 63 25 211 5 218 -7 2 -12 8 -12 14 0 5 -10 23 -21 40 l-22 30 22 -13 c11
-8 21 -17 21 -22 0 -4 5 -5 10 -2 6 3 10 2 10 -4 0 -6 11 -13 25 -17 14 -3 25
-10 25 -15 0 -5 3 -8 8 -7 19 4 59 -26 69 -53 6 -16 8 -29 4 -29 -4 0 -8 -11
-9 -25 -2 -29 -39 -120 -89 -219 -30 -60 -63 -109 -165 -240 -13 -16 -27 -38
-31 -50 -4 -11 -12 -23 -17 -26 -6 -3 -11 -18 -12 -33 -3 -35 -23 -35 -26 1
-1 15 -7 29 -12 30 -6 2 -10 10 -10 18 0 8 -4 14 -10 14 -5 0 -10 5 -10 11 0
14 -81 129 -91 129 -4 0 -11 10 -15 22 -3 12 -17 32 -30 45 -13 13 -24 32 -24
43 0 10 -4 20 -8 22 -27 11 -110 229 -112 295 0 12 81 63 102 63 7 0 29 14 48
30 19 16 36 30 37 30 2 0 -12 -24 -30 -52z m308 -1033 c204 -9 132 -20 -130
-20 -152 0 -257 4 -248 9 8 4 67 10 130 12 64 1 118 5 121 8 2 3 8 3 13 1 4
-3 55 -7 114 -10z"/>
<path d="M5085 4460 c-18 -19 -36 -49 -51 -80 -22 -45 -152 -200 -168 -200 -3
0 -15 -8 -25 -17 -11 -10 -31 -26 -45 -36 -25 -17 -25 -20 -20 -105 7 -135 7
-213 1 -267 -4 -27 -9 -86 -12 -130 -3 -44 -7 -91 -10 -105 -40 -199 -47 -420
-19 -570 9 -47 16 -92 16 -100 0 -8 5 -33 10 -55 6 -22 12 -53 13 -70 2 -16 6
-43 9 -60 4 -16 8 -39 10 -50 6 -41 19 -65 33 -65 31 0 198 125 188 140 -3 4
2 13 10 20 8 7 15 18 15 25 0 8 5 15 10 17 13 4 60 130 60 159 0 11 4 17 10
14 5 -3 7 0 4 9 -3 8 1 50 10 93 17 82 24 154 31 288 2 44 5 123 8 175 2 52 5
95 6 95 1 0 4 38 6 85 3 47 7 123 11 170 5 77 8 547 3 578 -1 6 -7 12 -12 12
-6 0 -7 3 -4 7 13 12 -26 43 -53 43 -15 0 -35 -9 -45 -20z m-54 -507 c9 -3 25
-21 36 -41 24 -44 33 -76 47 -173 4 -25 9 -59 13 -75 7 -36 7 -44 -1 -124 -17
-173 -45 -324 -64 -355 -4 -5 -7 -12 -8 -15 -2 -16 -29 -60 -36 -60 -4 0 -8
-6 -8 -14 0 -16 -65 -87 -101 -110 -26 -16 -28 -16 -54 9 -16 14 -24 25 -20
25 4 0 0 11 -9 25 -9 14 -14 25 -11 25 3 0 -1 15 -8 33 -14 32 -21 121 -19
242 2 130 6 215 12 215 3 0 6 8 7 18 3 40 8 62 13 62 4 0 7 6 8 13 1 16 7 37
17 62 17 43 68 162 81 189 8 16 14 36 14 43 0 8 5 13 11 11 7 -2 12 -31 13
-70 1 -37 5 -70 8 -74 4 -3 5 -11 3 -17 -3 -7 -6 -34 -9 -62 -4 -47 -15 -78
-64 -186 -12 -26 -24 -65 -28 -88 -4 -22 -9 -41 -13 -41 -3 0 -7 -10 -8 -22
-1 -13 -4 -41 -8 -63 -21 -131 -3 -230 40 -230 31 0 75 34 93 71 8 19 19 34
24 34 4 0 8 9 8 20 0 11 4 20 8 20 8 0 44 91 47 120 1 8 5 22 9 30 3 8 5 101
3 205 -3 203 -9 232 -60 287 -13 14 -27 38 -31 53 -6 24 -5 27 11 20 10 -4 25
-9 34 -12z m-67 -597 c2 -33 0 -36 -18 -30 -29 9 -29 9 -11 44 19 38 25 35 29
-14z"/>
<path d="M5603 4468 c-10 -13 -22 -39 -31 -68 -10 -32 -3 -610 7 -610 6 0 7
-32 14 -262 1 -43 4 -78 7 -78 3 0 6 -42 7 -92 3 -119 8 -203 17 -253 4 -22
14 -78 22 -125 16 -91 60 -220 75 -220 5 0 9 -9 9 -20 0 -43 182 -199 217
-186 18 7 41 64 38 93 -1 13 1 23 4 23 4 0 7 10 8 23 0 12 4 42 8 67 4 25 9
56 10 70 2 14 4 25 5 25 1 0 3 11 5 25 2 14 10 67 19 118 22 125 20 246 -5
388 -31 181 -37 255 -41 564 -3 171 3 155 -78 220 -17 14 -37 31 -43 38 -7 7
-33 36 -59 65 -27 29 -48 58 -48 64 0 7 -4 13 -8 13 -5 0 -15 12 -23 28 -40
80 -61 102 -94 102 -18 0 -37 -6 -42 -12z m183 -540 c-6 -10 -14 -18 -18 -18
-13 0 -50 -71 -64 -123 -17 -63 -19 -306 -4 -393 13 -72 84 -218 125 -256 37
-35 79 -37 96 -6 18 33 12 174 -11 277 -20 89 -42 155 -76 221 -20 39 -22 45
-30 110 -3 25 -7 51 -9 58 -3 6 -1 12 3 12 4 0 7 20 7 45 -1 25 2 45 7 45 4 0
5 8 3 18 -2 10 1 25 6 33 7 11 9 11 9 1 0 -7 23 -62 51 -122 27 -60 51 -118
52 -130 1 -11 4 -20 7 -20 3 0 7 -9 8 -20 4 -42 6 -50 12 -50 6 0 11 -26 13
-72 0 -16 3 -28 6 -28 3 0 6 -36 6 -80 0 -44 3 -80 6 -80 8 0 4 -54 -5 -68 -4
-7 -2 -12 6 -13 7 0 8 -3 3 -5 -6 -2 -10 -25 -9 -49 1 -25 -2 -48 -7 -51 -5
-3 -7 -9 -4 -14 3 -5 -1 -25 -9 -45 -8 -19 -13 -35 -11 -35 10 0 -38 -81 -52
-89 -10 -5 -26 -3 -43 5 -34 17 -90 79 -90 99 0 8 -4 15 -8 15 -18 0 -70 129
-85 210 -47 249 -35 482 30 602 26 47 56 64 79 43 8 -7 8 -14 0 -27z m49 -545
c18 -41 16 -55 -7 -51 -21 3 -24 12 -19 58 2 16 18 11 26 -7z"/>
<path d="M7022 4296 c-18 -19 -32 -41 -32 -49 0 -9 -5 -28 -12 -44 -6 -15 -12
-31 -13 -35 -2 -5 -4 -11 -5 -15 -1 -5 -2 -11 -1 -15 0 -5 -4 -8 -9 -8 -6 0
-27 -17 -48 -37 -20 -21 -53 -46 -72 -57 -19 -10 -50 -27 -67 -37 -23 -13 -33
-15 -34 -6 0 6 -4 2 -10 -11 -5 -13 -13 -20 -19 -17 -5 3 -10 1 -10 -5 0 -6
-4 -8 -10 -5 -5 3 -10 2 -10 -3 0 -12 -188 -65 -201 -57 -5 4 -9 3 -9 -2 0 -4
-15 -10 -33 -12 -38 -4 -195 -3 -251 1 -64 5 -74 -37 -76 -297 -1 -202 4 -237
34 -257 7 -5 6 -8 -4 -8 -10 0 -11 -3 -4 -8 13 -8 56 -89 60 -111 2 -8 9 -18
16 -23 16 -11 92 -1 96 13 2 5 7 7 12 4 4 -3 33 4 63 14 31 11 69 22 84 25 15
3 37 7 48 10 101 24 144 32 227 43 21 3 42 11 48 18 12 14 -15 25 -102 41 -21
3 -38 10 -38 15 0 5 -3 8 -7 7 -15 -3 -79 31 -97 51 -10 11 -21 41 -24 66 -4
41 -3 45 14 39 11 -4 16 -4 12 0 -8 9 23 47 33 40 4 -2 16 7 27 21 11 13 32
27 48 30 16 2 39 7 52 10 12 3 31 7 42 9 11 3 25 8 30 11 6 3 10 0 10 -7 1
-10 4 -9 13 2 7 9 19 16 27 16 24 0 150 43 176 61 13 8 24 11 24 7 0 -5 4 -4
8 2 4 5 25 19 47 31 82 43 245 229 259 296 2 7 6 19 10 28 4 9 8 30 9 48 2 26
-3 35 -28 49 -16 9 -33 21 -36 26 -4 5 -12 5 -18 2 -6 -4 -11 -4 -11 1 0 4
-10 13 -23 19 -57 26 -173 89 -177 96 -3 4 -20 -8 -38 -26z"/>
<path d="M3660 4287 c-19 -13 -50 -29 -67 -36 -18 -8 -33 -18 -33 -23 0 -5 -3
-7 -8 -4 -4 2 -34 -11 -67 -29 -58 -32 -60 -34 -59 -73 0 -21 5 -48 9 -58 4
-11 7 -23 6 -27 0 -4 6 -10 14 -13 8 -4 15 -15 15 -25 0 -10 4 -19 9 -19 5 0
14 -12 20 -27 13 -30 56 -83 67 -83 3 0 29 -22 57 -50 47 -47 196 -130 232
-130 8 0 17 -5 20 -10 4 -6 10 -8 15 -5 5 3 11 1 15 -5 4 -6 11 -8 16 -5 5 4
15 3 22 -2 6 -4 17 -8 22 -10 6 -1 20 -4 33 -7 41 -11 131 -30 143 -31 5 0 51
-34 100 -75 21 -17 33 -67 18 -76 -5 -3 -7 -9 -4 -14 8 -13 -25 -49 -65 -70
-19 -10 -68 -28 -108 -40 -59 -17 -71 -24 -62 -35 9 -11 29 -17 105 -31 11 -2
34 -6 50 -9 17 -3 44 -8 60 -10 52 -6 78 -13 130 -31 28 -9 57 -18 65 -19 8
-1 28 -7 43 -14 16 -6 43 -12 60 -14 30 -2 34 2 69 73 21 41 38 81 38 88 0 6
5 12 11 12 5 0 8 4 4 9 -3 5 -1 12 4 15 14 9 6 439 -9 476 -1 3 -2 8 -2 12 3
19 -28 27 -74 19 -98 -18 -281 -1 -402 39 -68 22 -205 91 -222 111 -3 3 -22
14 -42 24 -21 9 -38 21 -38 26 0 5 -5 9 -10 9 -19 0 -51 37 -54 61 -3 26 -19
65 -47 119 -22 44 -52 49 -99 17z"/>
<path d="M7435 4119 c-4 -6 -4 -13 -1 -16 8 -8 -54 -122 -73 -133 -9 -5 -11
-10 -4 -10 14 0 -16 -60 -30 -60 -5 0 -5 -4 -2 -10 3 -5 1 -10 -4 -10 -6 0
-11 -7 -11 -15 0 -8 -4 -15 -10 -15 -5 0 -10 -6 -10 -12 0 -16 -100 -109 -111
-103 -4 3 -10 1 -14 -5 -8 -13 -85 -53 -85 -44 0 4 -8 -3 -19 -14 -10 -12 -23
-22 -28 -22 -11 0 -49 -28 -76 -57 -25 -28 -57 -99 -49 -108 7 -6 8 -10 11
-36 0 -6 8 -9 16 -5 8 3 15 0 15 -7 0 -7 14 -20 31 -29 29 -17 32 -17 62 -1
18 9 35 16 40 15 4 -1 7 2 7 8 0 5 8 10 17 10 12 0 9 -6 -13 -24 -16 -13 -40
-33 -54 -45 l-25 -20 23 -1 c12 0 22 -5 22 -11 0 -19 -45 -66 -59 -61 -10 3
-12 -1 -8 -12 4 -9 3 -15 -2 -11 -5 3 -20 -8 -34 -25 -14 -16 -31 -31 -39 -32
-27 -6 -37 -31 -21 -55 8 -13 19 -21 23 -18 4 3 19 -4 33 -15 14 -11 28 -20
31 -20 15 0 44 -35 39 -47 -5 -11 -9 -11 -24 3 -11 9 -19 14 -19 9 0 -4 -6 -2
-13 4 -8 6 -17 8 -20 4 -4 -3 -9 2 -13 11 -3 9 -10 13 -15 10 -5 -3 -9 -1 -9
4 0 5 -12 9 -27 8 -24 -1 -30 -8 -47 -56 -11 -30 -23 -56 -28 -58 -4 -2 -8
-16 -8 -32 0 -15 -7 -30 -15 -34 -8 -3 -12 -12 -9 -20 4 -11 -4 -20 -23 -28
-15 -7 -30 -15 -33 -18 -11 -11 -164 -85 -172 -83 -4 2 -8 -1 -8 -6 0 -4 -46
-32 -102 -61 -95 -48 -161 -93 -116 -77 9 3 19 3 22 -1 4 -3 17 -7 29 -9 34
-5 89 -24 84 -30 -3 -2 6 -15 20 -29 19 -19 23 -31 19 -50 -4 -15 -3 -23 2
-20 10 6 19 -16 28 -69 3 -16 11 -36 16 -42 6 -7 7 -13 4 -13 -4 0 -2 -9 4
-20 8 -14 8 -20 0 -20 -7 0 -7 -7 1 -22 7 -13 12 -24 11 -25 -1 -2 -2 -4 -1
-5 1 -5 7 -33 13 -68 8 -40 13 -68 18 -90 2 -8 12 -27 21 -42 10 -14 19 -36
20 -47 1 -12 5 -21 9 -21 4 0 8 -6 8 -14 0 -8 12 -29 28 -47 15 -18 20 -29 12
-25 -22 12 54 -57 78 -71 53 -32 97 7 73 64 -13 32 -20 128 -21 287 -1 106 11
180 50 321 16 60 18 69 19 84 2 36 216 212 240 197 5 -3 11 0 14 8 7 17 66 48
78 40 5 -3 9 2 9 12 0 11 6 15 20 11 12 -3 27 2 36 11 9 9 36 16 64 18 27 1
54 5 60 9 7 4 16 2 20 -5 4 -7 10 -8 13 -3 5 8 128 10 147 3 4 -2 41 -1 75 1
18 1 109 -12 130 -18 21 -7 24 -8 65 -16 35 -7 90 -37 90 -48 0 -6 5 -7 10 -4
6 3 13 0 16 -8 2 -7 10 -14 17 -14 7 0 37 -16 68 -37 56 -37 99 -52 109 -38 4
7 177 77 190 77 12 1 30 17 26 24 -3 4 16 29 41 56 l46 47 -45 44 c-25 24 -48
40 -52 37 -3 -4 -6 -1 -6 5 0 7 -5 12 -11 12 -9 0 -43 14 -134 56 -45 20 -148
53 -167 54 -10 0 -18 4 -18 8 0 5 -6 9 -13 9 -18 0 -127 73 -127 85 0 5 -14
21 -30 35 -17 14 -29 28 -26 30 3 3 -5 14 -17 24 -12 10 -18 18 -14 19 4 0 -2
10 -13 23 -21 21 -51 81 -49 95 1 4 0 9 -1 12 -2 3 -4 21 -6 40 -9 113 -5 154
24 220 17 41 52 84 52 65 0 -4 9 4 20 18 11 14 29 29 40 32 11 4 18 11 15 16
-4 5 1 9 10 9 26 0 97 40 93 52 -3 7 -17 16 -34 21 -16 6 -32 15 -36 21 -4 6
-10 7 -14 3 -4 -4 -15 0 -25 9 -10 9 -25 14 -34 11 -8 -4 -15 -2 -15 3 0 6 -3
9 -7 8 -8 -1 -33 7 -68 23 -45 20 -104 37 -109 32 -3 -4 -6 -1 -6 4 0 6 -18
14 -40 18 -24 4 -37 11 -34 17 4 6 1 8 -7 6 -8 -3 -27 0 -44 7 -52 20 -83 26
-90 14z m-275 -653 c0 -2 -8 -10 -17 -17 -16 -13 -17 -12 -4 4 13 16 21 21 21
13z m-60 -110 c0 -3 -4 -8 -10 -11 -5 -3 -10 -1 -10 4 0 6 5 11 10 11 6 0 10
-2 10 -4z m-36 -314 c2 -4 1 -14 -5 -22 -6 -11 -9 -12 -9 -2 0 7 -4 10 -10 7
-11 -7 -14 8 -3 18 9 9 21 9 27 -1z m26 -29 c0 -9 3 -14 6 -10 6 6 64 -19 64
-28 0 -5 -32 5 -45 16 -10 7 -16 9 -35 9 -5 0 -10 7 -10 15 0 8 5 15 10 15 6
0 10 -7 10 -17z"/>
<path d="M3220 4093 c-41 -14 -78 -31 -82 -37 -4 -6 -8 -8 -8 -4 0 4 -30 -4
-67 -18 -38 -14 -75 -27 -83 -29 -8 -2 -16 -4 -17 -5 -2 -2 -6 -3 -10 -5 -5
-1 -24 -9 -43 -17 -19 -8 -57 -23 -83 -32 -54 -20 -52 -30 10 -62 79 -40 144
-97 169 -148 14 -28 25 -62 26 -76 1 -14 5 -29 8 -35 8 -11 5 -87 -4 -124 -15
-63 -32 -101 -75 -165 -91 -137 -162 -186 -338 -236 -46 -12 -83 -27 -83 -32
0 -5 -4 -7 -9 -3 -5 3 -12 1 -16 -5 -4 -6 -11 -8 -16 -5 -5 4 -9 2 -9 -3 0 -5
-20 -17 -45 -26 -42 -17 -126 -77 -133 -97 -2 -5 25 -38 60 -73 50 -50 78 -69
133 -91 39 -14 83 -32 99 -40 24 -11 33 -11 50 -1 12 7 69 43 128 80 58 37
119 69 135 71 15 2 28 5 28 6 0 1 14 3 30 4 17 2 30 4 30 5 0 13 355 21 377 9
13 -7 18 -6 18 3 0 8 3 9 8 3 4 -5 18 -11 32 -13 49 -5 103 -26 175 -72 17
-10 59 -33 94 -51 70 -36 147 -111 172 -167 22 -52 67 -253 74 -337 13 -143 5
-307 -16 -347 -24 -44 1 -96 39 -84 31 10 131 118 143 155 7 19 23 60 37 90
14 31 27 66 28 79 2 12 8 48 15 80 6 31 12 62 13 67 1 6 5 16 9 23 5 6 5 17 2
22 -4 6 -2 17 4 24 7 8 11 18 10 22 -1 5 0 11 1 14 1 3 3 13 6 23 2 9 6 25 8
35 3 9 5 18 6 20 2 1 3 5 4 10 1 4 7 17 14 30 7 12 10 22 7 22 -2 0 5 11 16
25 21 23 34 28 109 40 19 3 35 7 37 8 8 8 -22 29 -92 64 -161 80 -260 135
-263 144 -2 5 -8 7 -13 3 -5 -3 -9 0 -9 5 0 6 -3 10 -7 9 -5 -2 -24 6 -43 18
-31 18 -39 31 -60 99 -24 75 -52 125 -71 125 -16 0 -89 -35 -89 -42 0 -5 -6
-8 -13 -8 -13 0 -73 -27 -192 -85 l-50 -25 35 30 c19 16 47 35 63 42 15 7 27
16 27 20 0 5 6 8 13 8 6 0 28 14 47 30 19 16 41 30 48 30 6 0 12 4 12 8 0 5
11 14 24 20 14 6 34 19 45 28 20 17 20 18 -23 61 -24 24 -46 43 -50 43 -3 0
-19 14 -34 30 -16 17 -34 30 -40 30 -5 0 -12 7 -16 15 -3 8 -13 15 -21 15 -9
0 -14 4 -10 9 3 5 22 7 43 5 l37 -6 -31 29 c-17 15 -44 37 -59 48 -29 20 -71
56 -50 43 7 -4 15 -5 18 -1 4 3 7 1 7 -5 0 -7 3 -11 8 -10 4 1 31 -10 60 -25
58 -30 81 -29 121 7 62 56 39 124 -71 211 -7 6 -33 19 -58 30 -76 34 -233 145
-205 145 3 0 1 6 -5 13 -26 30 -65 97 -111 188 -27 55 -55 99 -62 98 -6 0 -46
-12 -87 -26z"/>
<path d="M8253 3815 c-11 -8 -23 -12 -25 -9 -3 2 -11 -2 -18 -11 -7 -8 -19
-15 -27 -15 -7 0 -26 -11 -41 -25 -15 -14 -31 -25 -37 -25 -16 0 -60 -44 -86
-86 -16 -27 -23 -55 -25 -96 -1 -32 3 -58 8 -58 5 0 6 -4 3 -10 -3 -5 -1 -10
4 -10 6 0 10 -4 9 -9 -6 -22 231 -209 246 -194 3 3 6 1 6 -5 0 -7 9 -12 20
-12 11 0 23 -7 26 -15 4 -8 10 -12 15 -9 14 8 139 -59 139 -75 0 -8 6 -11 15
-7 8 3 15 1 15 -4 0 -6 6 -10 14 -10 8 0 17 -7 20 -16 3 -8 10 -13 15 -10 4 3
16 -3 26 -14 24 -26 38 -25 60 4 10 13 24 22 32 19 7 -3 13 -1 13 4 0 16 186
199 197 196 6 -2 22 12 37 32 41 53 177 184 189 182 6 -1 11 3 12 9 0 5 17 25
38 43 35 31 45 59 19 54 -6 -2 -26 -5 -44 -8 -30 -4 -95 -15 -108 -18 -3 -1
-29 2 -57 6 -29 4 -56 7 -59 6 -4 0 -10 5 -14 12 -5 6 -23 14 -41 16 -18 2
-35 7 -38 11 -4 4 -15 8 -26 9 -11 1 -54 11 -95 23 -167 47 -186 52 -200 57
-8 3 -24 7 -35 8 -11 2 -42 13 -70 26 -27 12 -59 24 -69 26 -11 2 -25 8 -31
13 -7 6 -19 4 -32 -5z"/>
<path d="M2439 3795 c-35 -13 -77 -28 -94 -34 -16 -6 -86 -27 -155 -46 -69
-20 -129 -37 -135 -39 -5 -1 -27 -6 -48 -11 -20 -4 -40 -11 -43 -16 -3 -5 -10
-7 -15 -3 -5 3 -16 0 -24 -6 -8 -7 -15 -10 -15 -6 0 3 -16 0 -36 -9 -19 -8
-45 -15 -57 -15 -12 0 -35 -1 -52 -2 -36 -1 -124 10 -136 18 -5 3 -16 1 -25
-4 -13 -7 -8 -15 28 -46 44 -39 203 -190 363 -347 50 -48 110 -103 134 -122
l44 -35 51 39 c43 33 218 133 236 135 62 7 271 170 297 231 18 45 17 137 -2
153 -8 7 -15 16 -15 21 0 23 -102 103 -167 130 -18 8 -33 17 -33 20 0 17 -44
14 -101 -6z"/>
<path d="M4048 3119 c-24 -9 -26 -15 -23 -47 2 -20 8 -38 14 -40 6 -2 11 -10
11 -17 0 -8 8 -20 18 -27 9 -7 18 -18 19 -25 4 -17 74 -83 84 -78 4 3 10 -3
13 -12 5 -16 55 -46 81 -49 6 -1 27 -8 47 -18 48 -21 202 -57 228 -53 30 5 37
17 12 24 -12 3 -22 10 -22 15 0 6 -13 29 -29 53 -16 24 -35 59 -42 79 -26 72
-126 157 -221 191 -48 17 -149 19 -190 4z"/>
<path d="M6523 3111 c-23 -11 -44 -17 -47 -14 -3 4 -6 1 -6 -6 0 -7 -4 -9 -10
-6 -5 3 -10 -1 -10 -9 0 -9 -6 -16 -13 -16 -30 0 -96 -78 -138 -164 -26 -51
-56 -96 -72 -108 -30 -22 -28 -38 7 -38 32 0 228 50 243 62 7 5 17 7 23 3 5
-3 10 -1 10 4 0 6 5 11 11 11 31 0 205 152 194 171 -3 4 -2 9 2 11 5 1 16 19
25 39 27 58 10 72 -93 76 -66 2 -93 -1 -126 -16z"/>
<path d="M3117 2834 c-1 -1 -48 -7 -105 -13 -78 -8 -115 -17 -150 -37 -75 -42
-132 -84 -132 -97 0 -14 80 -56 118 -63 13 -3 48 4 78 16 30 11 56 20 59 20 3
0 6 0 8 1 35 14 226 10 287 -6 14 -3 30 -7 35 -8 29 -7 144 -68 170 -91 17
-14 38 -29 48 -32 9 -3 17 -9 17 -14 0 -5 6 -15 14 -22 17 -18 51 -81 48 -90
-1 -5 2 -8 6 -8 9 0 11 -8 13 -57 1 -16 5 -32 9 -38 4 -5 6 -21 5 -35 -2 -27
9 -51 40 -86 27 -31 34 -40 85 -109 25 -33 55 -70 66 -82 12 -12 24 -28 27
-35 9 -21 25 9 37 69 15 70 7 257 -13 313 -9 25 -17 53 -17 63 0 9 -5 17 -10
17 -6 0 -10 6 -8 13 1 6 -5 23 -14 37 -9 14 -18 34 -20 45 -2 11 -5 22 -8 25
-3 3 -14 24 -25 48 -42 96 -227 230 -340 247 -41 6 -323 13 -328 9z"/>
<path d="M7310 2828 c0 -5 -10 -8 -23 -8 -12 0 -39 -11 -60 -25 -20 -14 -37
-23 -37 -20 0 4 -7 0 -15 -9 -9 -8 -23 -12 -32 -9 -11 4 -14 3 -9 -5 4 -7 1
-12 -8 -12 -9 0 -16 -4 -16 -10 0 -5 -5 -10 -11 -10 -27 0 -108 -105 -115
-150 -2 -8 -8 -16 -14 -18 -5 -2 -8 -8 -4 -13 3 -5 -2 -9 -10 -9 -9 0 -13 -6
-10 -13 2 -7 -2 -27 -11 -43 -8 -16 -15 -34 -15 -41 0 -6 -4 -13 -8 -15 -4 -1
-18 -39 -30 -83 -18 -68 -21 -101 -19 -215 3 -136 13 -180 42 -180 7 0 16 9
20 19 3 11 15 23 25 26 11 3 17 12 14 20 -3 8 3 16 15 20 12 3 19 10 16 15 -3
5 1 14 8 22 8 7 19 23 26 36 6 12 18 22 27 22 8 0 14 6 12 13 -2 6 12 31 31
54 26 33 35 54 37 90 2 27 8 66 14 88 6 22 12 46 12 53 1 6 8 12 15 12 8 0 11
4 8 10 -3 5 -1 15 5 22 6 7 22 27 35 43 16 19 25 25 25 15 1 -9 6 -5 15 10 7
14 18 25 25 25 6 0 15 7 20 15 5 8 12 12 15 8 3 -3 21 7 38 24 21 19 40 28 54
25 12 -2 24 0 26 6 1 5 14 11 27 12 14 1 25 3 25 4 0 4 35 10 95 17 30 3 58 8
62 10 4 3 9 0 12 -5 4 -5 21 -7 40 -4 19 3 44 0 57 -8 13 -7 37 -13 52 -12 16
0 31 -6 34 -13 2 -7 11 -10 18 -8 7 3 16 1 19 -5 4 -6 18 -6 38 -1 17 5 35 7
39 4 5 -3 9 -1 9 5 0 6 11 13 25 17 14 3 25 10 25 15 0 5 6 6 14 3 29 -11 23
24 -10 53 -19 17 -34 27 -34 24 0 -3 -7 3 -16 14 -8 11 -16 18 -17 15 -2 -3
-22 4 -45 14 -23 10 -39 22 -37 27 3 4 -7 8 -22 8 -16 0 -39 3 -53 6 -35 9
-490 12 -490 3z"/>
<path d="M3086 2600 c-27 -3 -51 -10 -53 -16 -4 -12 64 -45 107 -51 14 -2 35
-11 48 -19 12 -8 22 -12 22 -9 0 11 121 -50 197 -101 45 -29 85 -54 89 -54 4
0 14 -9 23 -19 10 -12 22 -16 30 -12 19 12 -23 76 -78 116 -25 19 -52 39 -58
45 -7 6 -13 9 -13 6 0 -3 -12 6 -26 19 -15 14 -33 25 -40 25 -8 0 -14 4 -14 8
0 5 -17 16 -37 25 -42 18 -123 38 -123 30 0 -3 -6 -1 -12 3 -7 5 -35 7 -62 4z"/>
<path d="M7568 2594 c-56 -14 -144 -59 -174 -90 -14 -13 -28 -24 -32 -24 -18
1 -104 -74 -131 -114 -31 -44 -40 -73 -21 -61 6 3 10 1 10 -5 0 -6 12 3 26 20
15 17 29 29 31 26 3 -2 43 22 89 55 47 32 91 59 99 59 8 0 15 5 15 10 0 6 8
10 18 10 10 0 23 5 30 12 7 7 12 8 12 4 0 -5 7 -3 15 4 8 7 15 9 15 4 0 -5 4
-4 8 1 7 11 121 50 135 47 4 -1 17 6 28 17 20 18 20 18 -8 30 -32 13 -101 11
-165 -5z"/>
<path d="M4336 1400 c-41 -21 -60 -41 -48 -50 11 -8 102 -148 104 -162 4 -18
22 -37 31 -31 4 2 7 -1 7 -7 0 -7 11 -25 24 -40 l23 -28 34 37 c18 20 38 51
44 69 16 44 1 153 -22 167 -62 37 -121 65 -138 65 -11 -1 -38 -10 -59 -20z"/>
<path d="M6343 1410 c-18 -4 -40 -13 -48 -20 -8 -7 -15 -9 -15 -6 0 4 -14 -6
-30 -21 -37 -34 -51 -101 -36 -168 3 -11 5 -23 5 -27 1 -4 19 -25 41 -48 l39
-40 44 63 c24 34 56 81 71 105 15 23 36 54 48 67 27 31 29 46 12 70 -8 10 -14
16 -14 12 0 -3 -16 1 -35 9 -38 15 -36 15 -82 4z"/>
</g>
</svg>
